<?xml version="1.0" encoding="UTF-8"?>
<svg width="709px" height="260px" viewBox="0 0 709 260" version="1.1" xmlns="http://www.w3.org/2000/svg" xmlns:xlink="http://www.w3.org/1999/xlink">
    <!-- Generator: Sketch 48.2 (47327) - http://www.bohemiancoding.com/sketch -->
    <title>ESRI_Logo</title>
    <desc>Created with Sketch.</desc>
    <defs></defs>
    <g id="Page-1" stroke="none" stroke-width="1" fill="none" fill-rule="evenodd">
        <g id="ESRI_Logo" fill-rule="nonzero">
            <path d="M247.70912,134.80915 C247.70912,203.19819 192.26294,258.65984 123.85069,258.65984 C55.45392,258.65984 0,203.19819 0,134.80915 C0,66.39691 55.45392,10.95072 123.85069,10.95072 C192.26294,10.95072 247.70912,66.39691 247.70912,134.80915" id="path252" fill="#FFFFFF"></path>
            <path d="M685.2628,0 C672.16522,0 662.63407,10.42855 662.63407,22.0485 C662.63407,33.67619 672.16522,44.097 685.2628,44.097 C698.35265,44.097 708.47175,34.60454 708.47175,22.0485 C708.47175,9.50793 698.35265,0 685.2628,0 Z M359.95069,65.9521 C318.32931,65.9521 284.90842,94.91687 284.90842,138.28666 C284.90842,181.64097 318.32931,210.81462 359.95069,210.81462 C378.94335,210.81462 396.86066,204.85766 411.78401,190.31339 L389.92892,168.6517 C381.81352,177.19259 371.40818,183.15729 356.46935,183.15729 C337.21366,183.15729 321.64045,170.84108 319.33503,150.47136 L424.54893,150.47136 L424.54893,140.99437 C424.54893,93.02147 398.46208,65.9521 359.95069,65.9521 Z M493.59556,65.9521 C465.73708,65.9521 438.08749,79.69953 438.08749,110.43592 C438.08749,162.99645 512.54953,140.60755 512.54953,169.03852 C512.54953,179.94672 499.58347,184.89796 489.53399,184.89796 C474.92783,184.89796 465.72935,177.80376 456.84806,168.07148 L434.60615,190.31339 C448.57793,205.46109 466.72733,210.81462 487.59991,210.81462 C515.72916,210.81462 546.97614,199.2643 546.97614,166.52421 C546.97614,112.81097 472.5141,132.99502 472.5141,108.30843 C472.5141,97.96498 483.42224,93.60943 492.62852,93.60943 C504.31809,93.60943 512.92088,98.42142 519.51222,107.5348 L541.56072,85.6797 C530.21155,71.51451 511.39676,65.9521 493.59556,65.9521 Z M638.65149,65.9521 C620.54078,65.9521 605.30797,75.51419 597.84242,91.28853 L597.26251,91.28853 L597.26251,69.43344 L562.8359,69.43344 L562.8359,207.33328 L597.26251,207.33328 L597.26251,133.45146 C597.26251,125.99365 601.93525,98.83144 634.39683,98.83144 C639.39449,98.83144 644.2451,99.71338 649.48265,100.95893 L650.8365,68.07958 C646.85224,66.95008 642.91445,65.9521 638.6518,65.9521 L638.65149,65.9521 Z M668.43631,69.43344 L668.43631,207.33328 L702.86292,207.33328 L702.86292,69.43344 L668.43631,69.43344 Z M355.11549,91.86876 C376.6534,91.86876 389.82061,104.46348 390.12233,124.5547 L319.33503,124.5547 C321.92663,104.73425 334.73804,91.86876 355.11549,91.86876 Z" id="path256" fill="#000000"></path>
            <path d="M79.90377,52.01899 C71.67233,52.35939 63.78902,53.45795 55.92893,54.62613 C33.66381,73.53369 19.27426,101.38443 18.30722,132.64688 C24.59684,139.26917 32.90565,154.26215 42.49094,162.92683 C43.7597,162.36176 45.13676,161.88242 46.60667,161.43372 C41.90298,155.97188 35.32712,148.73068 34.33687,145.39633 C29.49387,129.06497 35.1027,113.77801 47.21783,112.57114 C58.07962,111.48032 67.40182,95.31916 75.06084,84.7204 C90.81198,62.9272 115.01891,66.56327 113.80425,55.65506 C112.41177,49.28034 108.63645,47.33852 103.8322,47.33852 C96.60642,47.33252 87.07534,51.74048 79.90377,52.01899" id="path328" fill="#000000"></path>
            <path d="M51.17883,160.13401 C49.60062,160.58272 48.06883,161.00048 46.60667,161.43372 C45.29149,161.78959 44.2703,162.30792 42.49094,162.92683 C38.57637,164.67523 35.73714,167.352 35.07182,173.06914 C33.88042,183.44354 43.74423,191.58214 52.05303,193.96493 C62.59763,196.98209 63.47957,193.45433 69.01104,200.92761 C72.87146,206.14963 73.62188,215.84323 75.59464,222.21795 C76.70094,225.7844 78.19405,229.32763 79.98113,232.80124 C87.51624,236.30579 95.50792,238.97482 103.87088,240.64586 C105.94421,228.35285 105.00812,211.75845 107.75451,204.58689 C113.39429,189.90336 116.57391,183.42806 108.96905,168.27262 C92.19678,163.53799 87.11396,162.03715 70.2179,158.57128 C66.77524,157.86727 64.62455,157.5114 62.69047,157.5114 C59.68878,157.5114 57.21315,158.37013 51.17883,160.13401" id="path356" fill="#000000"></path>
            <path d="M154.97699,75.03453 C150.03348,82.09779 132.68866,84.03187 127.12625,91.97707 C122.79391,98.18159 127.27355,110.37403 123.49791,117.40634 C121.75724,120.64786 122.56182,130.05522 124.68151,133.12653 C131.35801,142.84335 142.45956,137.4434 150.80711,140.94021 C160.99578,145.19519 162.16402,157.00854 170.61208,165.65774 C179.07561,174.31468 159.81218,187.65209 175.54012,219.12343 C177.2189,222.5042 179.17612,224.97982 181.27273,226.67407 C191.91016,220.05952 201.27104,211.62694 208.96874,201.80955 C211.35152,185.91142 205.98252,180.82866 212.69764,166.27665 C216.83657,157.30252 223.93071,141.768 231.58199,131.23114 C230.28223,101.75577 217.04545,75.3904 196.57516,56.85419 C194.65655,57.38769 192.21188,57.48083 188.87753,56.87899 C186.01509,56.34487 183.43889,56.12083 181.10253,56.12083 C165.31271,56.12083 160.60896,66.99035 154.97699,75.03612" id="path384" fill="#000000"></path>
            <path d="M112.76919,249.27879 C109.23369,247.25187 104.80079,244.11093 100.66186,241.37227 C98.94439,242.88859 97.55953,245.11665 96.1902,246.90374 C100.93263,248.52836 107.32282,248.66762 112.76919,249.27879 M94.10146,236.59896 C86.52761,230.95145 67.79025,213.18113 60.02292,202.46633 C57.16828,204.14511 53.98866,208.71728 49.85747,209.50638 C48.23284,209.80841 44.5813,210.2568 43.49821,209.80841 C42.4228,209.3597 43.74578,207.07749 44.91396,205.55343 C46.93314,202.91535 49.88067,199.48816 54.19754,196.14607 C44.96038,182.60752 40.57389,172.72051 34.292,156.39688 C30.66366,158.66362 28.02558,160.6828 24.86143,163.20484 C23.79382,164.04036 20.86175,164.57417 19.43827,163.29764 C16.85434,160.97675 16.81566,156.89971 20.44399,154.31578 C21.9371,153.24817 29.31754,148.14994 31.04274,146.71098 C26.50153,133.62113 22.70299,116.41557 21.69727,107.49559 C18.67237,110.12594 14.4174,113.11989 13.21821,113.93221 C11.50081,114.41991 10.3481,113.87031 9.85297,113.78491 C8.12777,132.29791 10.11601,152.68311 15.62426,171.0878 C25.08578,202.73708 51.62135,232.91645 87.43275,244.14184 C88.26828,242.89629 92.384,238.13072 94.10146,236.59893 M20.59098,97.87907 C20.14227,91.03243 19.593,81.65602 19.593,81.65602 C14.56439,92.59517 11.55496,99.18651 10.15469,111.95917 C13.67471,105.7237 20.59098,97.87907 20.59098,97.87907 M74.32743,19.57208 C95.13039,10.96156 115.37633,6.23467 138.75542,9.42977 C141.35488,9.78564 141.13826,11.99049 138.37665,12.01369 L135.08091,12.09909 C116.25078,12.39307 88.55477,18.37325 74.22711,26.48864 C73.9257,36.04299 75.73569,51.22938 77.6543,63.19746 C90.67452,57.72015 110.80441,52.09585 126.09138,50.41707 C117.41123,41.19538 105.60561,32.46881 104.1976,31.45536 C102.78179,30.4419 102.07785,28.7167 102.07785,26.48864 C102.27899,22.3265 105.85317,21.80817 107.77178,22.3033 C114.13103,21.05775 120.45934,19.68068 131.23603,19.99787 C176.77972,18.00964 218.39337,43.77157 234.27603,73.14637 C274.51255,136.77757 234.28843,224.56155 181.60718,247.9407 C159.07903,257.94376 139.75371,262.25289 104.13565,257.28617 C68.44808,252.30398 39.27443,234.85859 16.61476,198.18845 C-11.29787,153.00063 4.41459,100.35499 8.3369,89.31527 C25.14018,49.68986 52.68147,28.69349 74.32768,19.57238 M27.24446,67.72322 C26.6336,72.48879 27.26926,81.28498 28.4668,91.7909 C38.1526,83.12623 56.86682,71.82347 72.50965,64.92267 C70.69935,53.00101 68.77301,33.98514 68.97415,28.92559 C54.50724,36.86305 38.62458,52.82307 26.98916,69.18538 M29.37195,101.3762 C30.74127,110.82224 35.27476,131.19196 39.35953,141.52768 C49.05314,134.23233 70.99333,120.69378 83.41006,115.21647 C79.07004,99.3957 76.14572,89.40811 73.71651,73.44036 C56.16281,81.2463 37.60339,93.37684 29.37195,101.3762 M43.14259,150.66427 C48.89841,167.08073 54.46082,179.60583 61.72522,189.94155 C70.2197,182.55336 87.64188,170.887 100.96382,164.50454 C96.57727,155.07397 90.24128,137.4429 85.83158,124.23701 C68.67243,132.66186 55.86109,140.87009 43.14259,150.66427 M67.15612,197.11311 C76.1844,208.69438 90.32638,223.39338 100.16698,231.51651 C109.4815,224.02776 120.03384,217.03413 128.81456,212.77142 C121.24071,201.02769 110.04626,183.96911 105.35805,173.47867 C88.55477,180.92874 79.01589,187.17195 67.15612,197.11311 M105.96148,236.63022 C109.54339,240.25081 123.73954,249.65044 123.73954,249.65044 C133.18558,250.06015 145.11498,248.94643 153.63266,247.46106 C148.93672,242.09979 137.20846,225.49766 133.64976,219.91204 C124.56732,223.7183 113.07115,230.72741 105.96148,236.63022 M163.58157,245.03959 C168.37035,243.50007 180.56278,237.9686 183.10029,236.29756 C183.70372,226.4647 183.60346,215.30119 183.20117,208.61702 C170.3821,208.61702 152.32553,212.36913 141.98208,216.70147 C147.98546,226.36413 156.26332,237.0093 163.58187,245.03959 M189.86214,232.65375 C199.48612,226.65037 208.52987,219.74957 215.09027,211.44851 C209.44276,210.03276 196.82483,208.3153 190.56615,208.71759 C190.56615,208.71759 190.365,223.7183 189.86214,232.65375 M218.11517,207.59582 C219.9332,205.77779 222.65639,201.9251 223.71626,199.68157 C224.77614,190.56045 224.80708,171.86178 224.42027,166.40767 C213.41923,161.94382 196.42254,158.41606 184.00575,157.50317 C188.04411,172.31822 190.06329,194.11142 190.365,201.21336 C196.32197,201.81679 211.35363,204.8649 218.11517,207.59582 M234.26086,165.30912 C233.75769,167.03431 230.72537,168.76725 229.30962,168.33402 C229.51819,171.3976 228.80645,186.62267 228.00218,192.49453 C230.1142,188.15446 234.15255,177.37777 235.36716,172.82108 L237.07688,166.12917 C238.77887,160.43524 244.29486,140.77726 239.29714,114.91475 C233.758,86.18207 223.36039,75.92371 219.72432,71.35929 C210.48716,66.33842 196.51537,61.78173 196.51537,61.78173 C209.17972,78.92541 213.56622,86.99438 221.14007,107.41052 C225.5343,109.69274 233.5027,114.11017 234.49289,115.32477 C235.29753,116.27634 235.30526,117.9938 232.80643,117.95512 C230.72537,117.94272 226.68701,115.95142 223.56154,115.11589 C226.88815,126.24072 229.46428,147.01273 229.27088,160.93036 C229.27088,160.93036 234.76372,163.59165 234.26086,165.30912 M213.07109,61.78173 C195.50965,40.27477 155.76046,21.97838 111.50873,24.73251 C121.39574,31.25422 129.62718,41.09482 136.83743,49.20248 C147.88489,48.18902 171.09384,50.01479 179.8204,52.42852 C178.33503,50.67238 176.50926,48.93171 176.03734,47.89504 C174.79953,45.23375 177.77802,44.66126 180.16854,46.18531 C183.20117,48.11939 186.69019,50.43255 189.45985,53.25631 C194.58903,54.40902 207.2147,58.73362 213.07109,61.78173 M224.3197,158.75646 C223.56154,144.88524 221.44179,126.35676 216.29714,113.46032 C202.67348,107.99075 184.0599,104.57129 167.71307,104.41657 C172.75715,116.17577 178.62127,135.83375 181.48371,148.48263 C193.28933,149.89837 211.75592,153.24046 224.3197,158.75646 M186.02493,59.54593 C173.71645,57.31787 155.76046,55.89439 142.43852,56.69897 C151.52096,69.27822 158.18193,80.23284 164.43287,95.84473 C181.28257,96.26249 204.18206,101.2911 213.57389,104.98132 C207.97286,90.04249 197.32763,71.07304 186.02493,59.54593 M108.83196,160.853 C128.91544,151.62357 150.96394,147.46917 173.15943,148.0726 C167.1019,127.08398 163.62829,117.34395 158.47591,104.57129 C133.81253,105.63891 112.76975,111.71965 93.59916,120.80209 C93.59916,120.80209 100.66241,143.50818 108.83196,160.853 M175.43391,156.89974 C150.30636,156.59833 128.3739,162.60914 113.38092,169.98185 C119.73243,183.66739 132.29621,201.78585 136.99215,209.25139 C145.16171,206.21102 153.94242,203.92881 160.75038,202.8612 C167.56608,201.80132 176.64078,200.80334 182.79888,200.91164 C181.68486,184.98257 179.8204,174.23682 175.43391,156.89974 M90.75219,112.16836 C108.91706,104.45525 128.60599,98.28167 155.14929,96.05361 C148.38775,79.83055 140.9222,68.37307 132.14148,57.87489 C112.57634,59.44536 94.71319,64.72153 79.2715,71.10399 C81.53824,83.12623 85.83189,97.6705 90.75219,112.16836" id="path396" fill="#000000"></path>
        </g>
    </g>
</svg>